<svg width="95" height="91" viewBox="0 0 95 91" fill="none" xmlns="http://www.w3.org/2000/svg">
<circle cx="38.5001" cy="28.5" r="1.5" fill="#383838"/>
<circle cx="56.5001" cy="28.5" r="1.5" fill="#383838"/>
<path d="M43.0001 39.5H52.0001" stroke="#383838" stroke-width="1.5"/>
<path d="M64.8336 1C71.3488 8.94961 70.7483 13.6124 68.2146 22L62.0161 17.9474L55.8176 13.8947L53.0001 12.0526C54.8931 8.77531 56.5352 6.59649 58.5001 4.88205C60.2304 3.37226 62.211 2.2226 64.8336 1Z" fill="#FEF6E8"/>
<path d="M55.8176 13.8947L53.0001 12.0526C54.8931 8.77531 56.5352 6.59649 58.5001 4.88205M55.8176 13.8947C55.9359 10.3287 56.6322 8.3607 58.5001 4.88205M55.8176 13.8947L62.0161 17.9474L68.2146 22C70.7483 13.6124 71.3488 8.94961 64.8336 1C62.211 2.2226 60.2304 3.37226 58.5001 4.88205" stroke="#EBDABF"/>
<path d="M62.8336 4C69.3488 11.9496 68.7483 16.6124 66.2146 25L60.0161 20.9474L53.8176 16.8947L51.0001 15.0526C52.8931 11.7753 54.5352 9.59649 56.5001 7.88205C58.2304 6.37226 60.211 5.2226 62.8336 4Z" fill="#EBDABF" fill-opacity="0.4"/>
<path d="M26.4001 23L23.0001 11C23.0001 11 26.2076 10.2384 28.1001 9.36364C30.8134 8.10941 34.3334 5 34.3334 5L40.0001 12.0909L37.1667 14.2727L26.4001 23Z" fill="#FEF6E8"/>
<path d="M23.0001 11L26.4001 23L37.1667 14.2727M23.0001 11C23.0001 11 26.2076 10.2384 28.1001 9.36364C30.8134 8.10941 34.3334 5 34.3334 5M23.0001 11C23.0001 11 27.1806 17.0724 30.9334 16.4545C35.6974 15.6702 34.3334 5 34.3334 5M34.3334 5L40.0001 12.0909L37.1667 14.2727M34.3334 5C36.2248 8.25166 37.6555 10.7514 37.1667 14.2727" stroke="#EBDABF"/>
<path d="M72.9001 35.5C72.9001 49.528 61.5281 60.9 47.5001 60.9C33.472 60.9 22.1001 49.528 22.1001 35.5C22.1001 21.472 33.472 10.1 47.5001 10.1C61.5281 10.1 72.9001 21.472 72.9001 35.5Z" fill="#FEF6E8" stroke="#EBDABF" stroke-width="0.2"/>
<path d="M43.0001 38H52.0001" stroke="#383838" stroke-width="1.5"/>
<path d="M53.9 23C53.9 23.3804 53.7205 23.7512 53.3787 24.0975C53.0365 24.4443 52.5363 24.7611 51.9104 25.0294C50.6588 25.5658 48.9228 25.9 47 25.9C45.0772 25.9 43.3412 25.5658 42.0896 25.0294C41.4637 24.7611 40.9635 24.4443 40.6213 24.0975C40.2795 23.7512 40.1 23.3804 40.1 23C40.1 22.6196 40.2795 22.2488 40.6213 21.9025C40.9635 21.5557 41.4637 21.2389 42.0896 20.9706C43.3412 20.4342 45.0772 20.1 47 20.1C48.9228 20.1 50.6588 20.4342 51.9104 20.9706C52.5363 21.2389 53.0365 21.5557 53.3787 21.9025C53.7205 22.2488 53.9 22.6196 53.9 23Z" fill="white" stroke="#EBDABF" stroke-width="0.2"/>
<circle cx="38.5001" cy="31.5" r="1.5" fill="#383838"/>
<circle cx="56.5001" cy="31.5" r="1.5" fill="#383838"/>
<circle cx="47" cy="23" r="2" fill="#383838"/>
<path d="M31.2681 16.9539C27.3569 17.5987 23.0001 11 23.0001 11C23.0001 11 26.6937 10.2227 29.0001 9C31.3064 7.77735 34.4001 5 34.4001 5C34.4001 5 36.2331 16.1354 31.2681 16.9539Z" fill="#FEF6E8"/>
<path d="M23.0001 11L22.8971 10.5107L22.5828 11.2755L23.0001 11ZM31.2681 16.9539L31.3495 17.4473L31.2681 16.9539ZM34.4001 5L34.8934 4.91878L34.066 4.62794L34.4001 5ZM29.0001 9L28.7659 8.55824L29.0001 9ZM23.0001 11C22.5828 11.2755 22.5829 11.2756 22.583 11.2758C22.583 11.2758 22.5831 11.276 22.5833 11.2762C22.5835 11.2765 22.5838 11.2769 22.5841 11.2774C22.5848 11.2785 22.5858 11.2799 22.587 11.2818C22.5894 11.2855 22.5929 11.2907 22.5975 11.2975C22.6065 11.311 22.6197 11.3305 22.6369 11.3557C22.6713 11.4061 22.7216 11.479 22.7867 11.5711C22.917 11.7551 23.1065 12.016 23.3461 12.3264C23.8244 12.9463 24.5057 13.7688 25.3149 14.5733C26.1216 15.3754 27.0703 16.1747 28.085 16.7336C29.097 17.2911 30.2194 17.6336 31.3495 17.4473L31.1868 16.4606C30.3613 16.5967 29.4723 16.3561 28.5674 15.8577C27.6652 15.3607 26.7914 14.6312 26.0199 13.8642C25.251 13.0996 24.5986 12.3128 24.1378 11.7155C23.9078 11.4174 23.7264 11.1678 23.6031 10.9935C23.5414 10.9064 23.4943 10.8381 23.463 10.7922C23.4473 10.7692 23.4356 10.7518 23.4279 10.7404C23.4241 10.7346 23.4213 10.7304 23.4195 10.7278C23.4186 10.7264 23.418 10.7255 23.4176 10.725C23.4174 10.7247 23.4173 10.7245 23.4173 10.7244C23.4172 10.7244 23.4173 10.7244 23.4172 10.7244C23.4173 10.7244 23.4173 10.7245 23.0001 11ZM31.3495 17.4473C32.81 17.2065 33.7386 16.2 34.3074 14.9475C34.8712 13.706 35.1126 12.1657 35.1952 10.6981C35.2782 9.22251 35.2025 7.77906 35.1069 6.70826C35.0591 6.17184 35.006 5.72658 34.9648 5.4146C34.9442 5.25857 34.9265 5.13574 34.9139 5.05138C34.9076 5.0092 34.9026 4.97662 34.8991 4.9543C34.8973 4.94314 34.896 4.93455 34.895 4.9286C34.8945 4.92563 34.8942 4.92332 34.8939 4.92168C34.8938 4.92086 34.8937 4.92021 34.8936 4.91972C34.8935 4.91948 34.8935 4.91925 34.8935 4.91913C34.8934 4.91893 34.8934 4.91878 34.4001 5C33.9067 5.08122 33.9067 5.08115 33.9067 5.08113C33.9067 5.08118 33.9067 5.0812 33.9067 5.08129C33.9067 5.08149 33.9068 5.08185 33.9069 5.08238C33.9071 5.08344 33.9073 5.08516 33.9077 5.08754C33.9085 5.09231 33.9097 5.0997 33.9112 5.10963C33.9144 5.12951 33.919 5.15956 33.9249 5.19913C33.9367 5.27829 33.9536 5.3955 33.9734 5.54554C34.0131 5.84573 34.0645 6.27681 34.1109 6.79712C34.2039 7.8398 34.2761 9.23134 34.1968 10.6419C34.117 12.0605 33.8858 13.4575 33.3969 14.5341C32.9129 15.5997 32.2087 16.2921 31.1868 16.4606L31.3495 17.4473ZM23.0001 11C23.103 11.4893 23.1031 11.4893 23.1032 11.4893C23.1032 11.4892 23.1033 11.4892 23.1034 11.4892C23.1036 11.4892 23.1038 11.4891 23.1041 11.4891C23.1046 11.4889 23.1054 11.4888 23.1065 11.4886C23.1085 11.4881 23.1114 11.4875 23.1152 11.4867C23.1228 11.4851 23.1338 11.4827 23.1481 11.4796C23.1768 11.4734 23.2187 11.4642 23.2726 11.4521C23.3804 11.428 23.5363 11.3922 23.7302 11.3456C24.1178 11.2523 24.6587 11.1151 25.2729 10.9392C26.4932 10.5895 28.0338 10.0781 29.2343 9.44176L28.7659 8.55824C27.66 9.14451 26.2006 9.63313 24.9975 9.97783C24.3999 10.149 23.8733 10.2826 23.4963 10.3733C23.3079 10.4186 23.1571 10.4532 23.0539 10.4763C23.0023 10.4879 22.9626 10.4966 22.9361 10.5023C22.9228 10.5052 22.9128 10.5074 22.9063 10.5088C22.903 10.5095 22.9006 10.51 22.899 10.5103C22.8983 10.5105 22.8977 10.5106 22.8974 10.5107C22.8972 10.5107 22.8971 10.5107 22.8971 10.5107C22.897 10.5107 22.8971 10.5107 22.897 10.5107C22.8971 10.5107 22.8971 10.5107 23.0001 11ZM29.2343 9.44176C30.4308 8.80745 31.811 7.78279 32.8768 6.93233C33.4132 6.50429 33.8766 6.11504 34.206 5.8327C34.3708 5.69146 34.5023 5.57681 34.5928 5.49724C34.638 5.45745 34.6731 5.42642 34.6969 5.4052C34.7089 5.3946 34.718 5.38644 34.7242 5.38087C34.7273 5.37809 34.7297 5.37595 34.7314 5.37448C34.7322 5.37374 34.7328 5.37317 34.7333 5.37277C34.7335 5.37257 34.7337 5.37241 34.7338 5.37229C34.7339 5.37223 34.734 5.37217 34.734 5.37214C34.734 5.3721 34.7341 5.37206 34.4001 5C34.066 4.62794 34.0661 4.62792 34.0661 4.62792C34.066 4.62793 34.066 4.62794 34.066 4.62797C34.066 4.62802 34.0658 4.62811 34.0657 4.62825C34.0654 4.62852 34.0649 4.62895 34.0642 4.62956C34.0629 4.63076 34.0608 4.63263 34.058 4.63513C34.0524 4.64015 34.0439 4.64774 34.0326 4.65778C34.01 4.67784 33.9763 4.70768 33.9325 4.74622C33.8448 4.82331 33.7165 4.93519 33.5552 5.07343C33.2325 5.35005 32.7784 5.73155 32.2531 6.15068C31.1955 6.99456 29.8757 7.9699 28.7659 8.55824L29.2343 9.44176Z" fill="#EBDABF"/>
<path d="M59.9642 7.72626C60.3025 7.93957 60.3024 7.93983 60.3022 7.94009C60.3022 7.94017 60.302 7.94042 60.3019 7.94059C60.3017 7.94091 60.3015 7.94122 60.3013 7.94152C60.3009 7.94211 60.3006 7.94265 60.3003 7.94314C60.2996 7.94411 60.2991 7.94486 60.2988 7.94541C60.298 7.94651 60.2978 7.94677 60.2982 7.94626C60.2989 7.94525 60.3018 7.94115 60.3071 7.93445C60.3178 7.92104 60.3379 7.89723 60.3689 7.8667C60.4308 7.80587 60.5367 7.71749 60.699 7.63111C61.0196 7.46044 61.5857 7.28407 62.5111 7.37582L62.5901 6.57972C61.5253 6.47417 60.7981 6.67204 60.3231 6.92494C60.0875 7.05035 59.92 7.18609 59.8079 7.29642C59.7519 7.35148 59.7099 7.40002 59.6802 7.43757C59.6653 7.45634 59.6535 7.47237 59.6445 7.48511C59.64 7.49148 59.6362 7.49704 59.6331 7.5017C59.6315 7.50403 59.6301 7.50614 59.6289 7.50802C59.6283 7.50896 59.6278 7.50984 59.6272 7.51066C59.627 7.51107 59.6267 7.51147 59.6265 7.51185C59.6263 7.51204 59.6262 7.51232 59.6261 7.51241C59.6259 7.51269 59.6258 7.51295 59.9642 7.72626ZM62.5111 7.37582C63.4727 7.47115 64.1748 7.66208 64.6301 7.82512C64.858 7.90668 65.0244 7.98139 65.1311 8.0339C65.1844 8.06016 65.2228 8.08088 65.2464 8.09415C65.2582 8.10078 65.2664 8.10555 65.2709 8.10822C65.2731 8.10955 65.2744 8.11036 65.2748 8.11061C65.275 8.11074 65.275 8.11072 65.2748 8.11057C65.2746 8.11049 65.2745 8.11038 65.2742 8.11023C65.2741 8.11015 65.274 8.11007 65.2738 8.10998C65.2738 8.10993 65.2736 8.10985 65.2736 8.10983C65.2735 8.10975 65.2733 8.10967 65.4866 7.77129C65.7 7.43292 65.6998 7.43283 65.6997 7.43274C65.6996 7.43271 65.6995 7.43262 65.6994 7.43256C65.6992 7.43243 65.699 7.43229 65.6987 7.43214C65.6983 7.43185 65.6977 7.43152 65.6971 7.43115C65.696 7.43042 65.6946 7.42955 65.6929 7.42854C65.6896 7.42653 65.6854 7.42396 65.6802 7.42088C65.6699 7.41472 65.6557 7.40649 65.6378 7.39643C65.602 7.37632 65.5509 7.34892 65.4845 7.3162C65.3516 7.25076 65.1572 7.16408 64.8998 7.07193C64.3847 6.88753 63.6187 6.6817 62.5901 6.57972L62.5111 7.37582Z" fill="#EBDABF"/>
<path d="M32.5456 10C32.2215 10.2344 32.2213 10.2341 32.2211 10.2339C32.221 10.2338 32.2209 10.2335 32.2208 10.2334C32.2205 10.2331 32.2203 10.2328 32.2201 10.2325C32.2197 10.2319 32.2193 10.2314 32.219 10.2309C32.2183 10.23 32.2178 10.2292 32.2174 10.2287C32.2167 10.2276 32.2165 10.2273 32.2169 10.2278C32.2175 10.2289 32.2203 10.2331 32.2245 10.2405C32.233 10.2554 32.2475 10.283 32.2643 10.3232C32.2977 10.4032 32.3401 10.5345 32.3597 10.7173C32.3984 11.0784 32.3509 11.6694 31.9204 12.4938L32.6296 12.8641C33.1248 11.9156 33.2125 11.1671 33.1551 10.632C33.1267 10.3666 33.0632 10.1606 33.0027 10.0154C32.9725 9.94293 32.9432 9.88585 32.9194 9.84424C32.9076 9.82344 32.8971 9.80648 32.8886 9.79339C32.8844 9.78684 32.8807 9.78126 32.8775 9.77663C32.8759 9.77432 32.8745 9.77225 32.8732 9.77042C32.8725 9.76951 32.8719 9.76865 32.8714 9.76786C32.8711 9.76746 32.8708 9.76707 32.8705 9.76671C32.8704 9.76652 32.8702 9.76626 32.8702 9.76617C32.87 9.76591 32.8698 9.76565 32.5456 10ZM31.9204 12.4938C31.4732 13.3504 31.0341 13.9305 30.7129 14.2921C30.5523 14.4731 30.4208 14.5996 30.3323 14.679C30.2881 14.7187 30.2545 14.7465 30.2334 14.7635C30.2228 14.772 30.2154 14.7778 30.2112 14.781C30.2091 14.7825 30.2079 14.7835 30.2075 14.7838C30.2073 14.7839 30.2073 14.7839 30.2076 14.7837C30.2077 14.7836 30.2079 14.7835 30.2081 14.7833C30.2082 14.7833 30.2083 14.7832 30.2085 14.7831C30.2085 14.783 30.2087 14.7829 30.2087 14.7829C30.2088 14.7828 30.2089 14.7827 30.4433 15.1069C30.6776 15.431 30.6778 15.4309 30.6779 15.4308C30.678 15.4308 30.6781 15.4307 30.6782 15.4306C30.6784 15.4305 30.6786 15.4303 30.6788 15.4302C30.6793 15.4299 30.6798 15.4295 30.6803 15.4291C30.6814 15.4283 30.6828 15.4273 30.6843 15.4261C30.6874 15.4238 30.6914 15.4209 30.6962 15.4172C30.7057 15.4099 30.7187 15.3999 30.7347 15.387C30.7667 15.3612 30.8112 15.3241 30.8663 15.2747C30.9766 15.1758 31.1296 15.0278 31.3111 14.8234C31.6744 14.4143 32.1512 13.7804 32.6296 12.8641L31.9204 12.4938Z" fill="#EBDABF"/>
<path d="M59.9576 10.62C60.2876 10.846 60.2874 10.8463 60.2872 10.8466C60.2872 10.8466 60.287 10.8469 60.2869 10.847C60.2867 10.8474 60.2865 10.8477 60.2863 10.8479C60.2859 10.8485 60.2855 10.8491 60.2852 10.8495C60.2845 10.8505 60.284 10.8512 60.2836 10.8517C60.2828 10.8528 60.2826 10.8531 60.283 10.8526C60.2837 10.8516 60.2868 10.8476 60.2924 10.8411C60.3035 10.8281 60.3245 10.8051 60.3567 10.7758C60.4208 10.7173 60.5301 10.633 60.6955 10.5529C61.0224 10.3946 61.5948 10.2399 62.5161 10.3668L62.6253 9.57431C61.5653 9.42828 60.8311 9.59832 60.3468 9.83294C60.1066 9.94928 59.9341 10.0785 59.8178 10.1845C59.7598 10.2374 59.716 10.2843 59.6848 10.3207C59.6692 10.3389 59.6568 10.3545 59.6473 10.3669C59.6426 10.3731 59.6386 10.3785 59.6353 10.383C59.6337 10.3853 59.6322 10.3873 59.6309 10.3892C59.6303 10.3901 59.6297 10.3909 59.6291 10.3917C59.6288 10.3921 59.6286 10.3925 59.6283 10.3929C59.6282 10.3931 59.628 10.3933 59.6279 10.3934C59.6277 10.3937 59.6276 10.394 59.9576 10.62ZM62.5161 10.3668C63.4733 10.4987 64.1676 10.7162 64.6164 10.8965C64.841 10.9867 65.0045 11.0677 65.109 11.1242C65.1613 11.1525 65.1989 11.1746 65.222 11.1888C65.2336 11.1959 65.2415 11.201 65.2459 11.2038C65.2481 11.2052 65.2494 11.2061 65.2498 11.2063C65.25 11.2065 65.2499 11.2065 65.2497 11.2063C65.2496 11.2062 65.2494 11.2061 65.2492 11.2059C65.2491 11.2059 65.2489 11.2058 65.2488 11.2057C65.2487 11.2056 65.2486 11.2055 65.2486 11.2055C65.2484 11.2054 65.2483 11.2053 65.4743 10.8753C65.7004 10.5453 65.7003 10.5452 65.7001 10.5451C65.7001 10.5451 65.6999 10.545 65.6998 10.5449C65.6996 10.5448 65.6994 10.5447 65.6992 10.5445C65.6987 10.5442 65.6982 10.5438 65.6976 10.5435C65.6965 10.5427 65.6951 10.5418 65.6935 10.5407C65.6903 10.5385 65.6862 10.5358 65.6811 10.5325C65.671 10.526 65.6572 10.5172 65.6397 10.5065C65.6046 10.485 65.5547 10.4557 65.4895 10.4205C65.3592 10.35 65.1683 10.256 64.9146 10.1541C64.4069 9.95024 63.6493 9.71539 62.6253 9.57431L62.5161 10.3668Z" fill="#EBDABF"/>
<rect width="3.5" height="3.5" rx="1.75" transform="matrix(1 0 0 -1 33.0001 38)" fill="#EBBFBF" fill-opacity="0.3"/>
<rect width="3.5" height="3.5" rx="1.75" transform="matrix(1 0 0 -1 58.5001 38)" fill="#EBBFBF" fill-opacity="0.3"/>
<path d="M19.0001 31.5C14.2801 31.755 10 39 10 39C10 39 9.00008 29.5 11.0001 24.5C11.9057 22.236 16.5 22.5 16.5 21C16.5 20.1268 15.3917 19.8665 15.5 19C15.5874 18.3014 16.5 17.5 16.5 17.5C16.5 17.5 13.0001 15.5 10.5 15.5C8.14878 15.5 6.49548 17.2015 6.00005 19.5C5.70912 20.8497 6.84846 21.2579 6.50005 23C5.50006 28 2.21042 30.2906 1.50005 35.5C1.10431 38.4021 2.2707 40.1743 1.50005 43C1.33758 43.5957 1.00362 43.8825 1.00005 44.5C0.99282 45.7503 1.82621 46.5695 3.00005 47C4.33466 47.4894 5.07853 46 6.50006 46C9.00008 46 11.0001 47.5 14 47.5C21.0001 47.5 23.0001 46 28.5001 43.5C30.5 42.5909 30.6283 41.5 30.5 39C30.3718 36.5 28.643 34.5225 26.0001 33C23.9072 31.7944 21.0001 31.3919 19.0001 31.5Z" fill="#FEF6E8"/>
<path d="M10 39L9.50279 39.0523L10.4305 39.2543L10 39ZM19.0001 31.5L18.9731 31.0007L19.0001 31.5ZM26.0001 33L25.7505 33.4333L26.0001 33ZM28.5001 43.5L28.2932 43.0448L28.5001 43.5ZM3.00005 47L2.82789 47.4694H2.82789L3.00005 47ZM1.00005 44.5L0.500055 44.4971L1.00005 44.5ZM1.50005 43L1.01766 42.8684H1.01766L1.50005 43ZM1.50005 35.5L1.00463 35.4324H1.00463L1.50005 35.5ZM6.50005 23L6.99034 23.0981L6.50005 23ZM6.00005 19.5L6.48882 19.6054L6.00005 19.5ZM10.5 15.5L10.5 15L10.5 15.5ZM16.5 17.5L16.83 17.8757C16.9513 17.7691 17.0138 17.6105 16.9975 17.4497C16.9813 17.289 16.8884 17.146 16.7481 17.0659L16.5 17.5ZM11.0001 24.5L11.4643 24.6857L11.0001 24.5ZM13.5001 20L13.8415 20.3653L13.5001 20ZM12.0364 21.3128C11.933 21.5689 12.0568 21.8603 12.3129 21.9637C12.569 22.067 12.8603 21.9432 12.9637 21.6872L12.0364 21.3128ZM10 39C10.4305 39.2543 10.4305 39.2544 10.4305 39.2544C10.4305 39.2544 10.4305 39.2544 10.4305 39.2544C10.4306 39.2543 10.4307 39.2541 10.4309 39.2538C10.4312 39.2532 10.4318 39.2521 10.4327 39.2507C10.4345 39.2477 10.4372 39.2431 10.441 39.2368C10.4486 39.2241 10.4602 39.2049 10.4758 39.1795C10.5069 39.1287 10.5536 39.0532 10.6151 38.9564C10.7382 38.7629 10.92 38.4847 11.1531 38.1494C11.6199 37.478 12.2894 36.582 13.1016 35.6802C13.9153 34.7768 14.862 33.879 15.8813 33.1946C16.903 32.5086 17.9686 32.0565 19.027 31.9993L18.9731 31.0007C17.6716 31.071 16.4322 31.6202 15.3239 32.3643C14.2132 33.1101 13.2049 34.0713 12.3586 35.011C11.5107 35.9524 10.8152 36.8836 10.332 37.5786C10.0901 37.9265 9.90069 38.2163 9.77122 38.42C9.70647 38.5218 9.65666 38.6022 9.62275 38.6576C9.60579 38.6854 9.5928 38.7069 9.5839 38.7217C9.57945 38.7291 9.57602 38.7348 9.57362 38.7388C9.57242 38.7408 9.57148 38.7424 9.57081 38.7436C9.57047 38.7441 9.57019 38.7446 9.56999 38.745C9.56988 38.7451 9.56977 38.7453 9.56972 38.7454C9.56963 38.7456 9.56956 38.7457 10 39ZM19.027 31.9993C20.9637 31.8946 23.7663 32.2903 25.7505 33.4333L26.2496 32.5667C24.0481 31.2986 21.0364 30.8892 18.9731 31.0007L19.027 31.9993ZM25.7505 33.4333C28.3284 34.9183 29.8851 36.7718 30.0007 39.0256L30.9994 38.9744C30.8586 36.2282 28.9576 34.1266 26.2496 32.5667L25.7505 33.4333ZM30.0007 39.0256C30.0657 40.2927 30.0534 41.084 29.8308 41.6687C29.6283 42.2009 29.2237 42.6219 28.2932 43.0448L28.707 43.9552C29.7764 43.4691 30.4359 42.89 30.7654 42.0245C31.0749 41.2115 31.0626 40.2073 30.9994 38.9744L30.0007 39.0256ZM28.2932 43.0448C25.5059 44.3118 23.6839 45.2867 21.6545 45.9632C19.6544 46.6298 17.4599 47 14 47V48C17.5402 48 19.8457 47.6202 21.9707 46.9118C24.0663 46.2133 25.9943 45.1882 28.707 43.9552L28.2932 43.0448ZM14 47C12.584 47 11.3986 46.6476 10.2131 46.2732C9.04423 45.9041 7.84188 45.5 6.50006 45.5V46.5C7.65825 46.5 8.70591 46.8459 9.912 47.2268C11.1016 47.6024 12.4161 48 14 48V47ZM6.50006 45.5C5.62244 45.5 4.94758 45.9689 4.46448 46.2523C3.94563 46.5566 3.60835 46.6905 3.1722 46.5306L2.82789 47.4694C3.72636 47.7989 4.42832 47.4328 4.97044 47.1148C5.54831 46.7758 5.95615 46.5 6.50006 46.5V45.5ZM3.1722 46.5306C2.11461 46.1427 1.49447 45.4669 1.50004 44.5029L0.500055 44.4971C0.491173 46.0336 1.5378 46.9963 2.82789 47.4694L3.1722 46.5306ZM1.50004 44.5029C1.50123 44.297 1.55334 44.1466 1.64354 43.9533C1.73092 43.7661 1.88639 43.4837 1.98243 43.1316L1.01766 42.8684C0.951231 43.112 0.858486 43.2709 0.737379 43.5304C0.619084 43.7838 0.502434 44.0855 0.500055 44.4971L1.50004 44.5029ZM1.98243 43.1316C2.39432 41.6213 2.28462 40.3919 2.13673 39.2162C1.98861 38.0387 1.80823 36.9406 1.99546 35.5676L1.00463 35.4324C0.796127 36.9615 1.00108 38.2005 1.14455 39.341C1.28826 40.4835 1.37643 41.553 1.01766 42.8684L1.98243 43.1316ZM1.99546 35.5676C2.33701 33.0629 3.29512 31.2581 4.32761 29.4159C5.35764 27.5781 6.47235 25.688 6.99034 23.0981L6.00976 22.9019C5.52776 25.312 4.49766 27.0672 3.45527 28.927C2.41535 30.7825 1.37346 32.7277 1.00463 35.4324L1.99546 35.5676ZM6.99034 23.0981C7.19295 22.085 6.95407 21.4372 6.73268 20.9095C6.52119 20.4053 6.3809 20.106 6.48882 19.6054L5.51127 19.3946C5.32826 20.2437 5.61218 20.8234 5.81052 21.2963C5.99897 21.7455 6.15556 22.1729 6.00976 22.9019L6.99034 23.0981ZM6.48882 19.6054C6.94742 17.4778 8.44014 16 10.5 16L10.5 15C7.85742 15 6.04354 16.9253 5.51127 19.3946L6.48882 19.6054ZM10.5 16C11.6441 16 13.0661 16.4651 14.2435 16.9608C14.8234 17.205 15.3276 17.4494 15.6867 17.6328C15.8661 17.7244 16.0087 17.8005 16.1059 17.8533C16.1545 17.8798 16.1917 17.9003 16.2164 17.9141C16.2288 17.921 16.238 17.9262 16.244 17.9296C16.247 17.9313 16.2492 17.9325 16.2505 17.9333C16.2512 17.9337 16.2516 17.9339 16.2519 17.9341C16.252 17.9341 16.2521 17.9342 16.2521 17.9342C16.2521 17.9342 16.2521 17.9342 16.2521 17.9342C16.252 17.9342 16.252 17.9341 16.5 17.5C16.7481 17.0659 16.748 17.0658 16.7479 17.0658C16.7479 17.0658 16.7478 17.0657 16.7477 17.0656C16.7475 17.0655 16.7473 17.0654 16.747 17.0652C16.7464 17.0649 16.7455 17.0644 16.7445 17.0638C16.7425 17.0627 16.7396 17.061 16.7359 17.0589C16.7284 17.0547 16.7177 17.0487 16.7038 17.0409C16.676 17.0254 16.6356 17.0031 16.5836 16.9748C16.4796 16.9183 16.3293 16.8381 16.1415 16.7422C15.7662 16.5506 15.2392 16.295 14.6316 16.0392C13.434 15.535 11.856 15 10.5 15L10.5 16ZM16.5 17.5C16.1701 17.1243 16.1701 17.1244 16.17 17.1244C16.17 17.1244 16.1699 17.1245 16.1698 17.1246C16.1697 17.1247 16.1696 17.1248 16.1694 17.1249C16.1691 17.1252 16.1687 17.1255 16.1683 17.1259C16.1675 17.1266 16.1665 17.1275 16.1652 17.1286C16.1627 17.1309 16.1593 17.1339 16.1551 17.1377C16.1468 17.1452 16.1352 17.1557 16.1209 17.169C16.0922 17.1956 16.0521 17.2335 16.0043 17.2808C15.9092 17.375 15.7807 17.5091 15.6483 17.6684C15.403 17.9636 15.0668 18.4347 15.0039 18.938L15.9962 19.062C16.0206 18.8667 16.1844 18.5878 16.4173 18.3076C16.5239 18.1793 16.6291 18.0694 16.7078 17.9915C16.7469 17.9528 16.7789 17.9226 16.8005 17.9026C16.8112 17.8926 16.8193 17.8852 16.8244 17.8807C16.8269 17.8784 16.8287 17.8768 16.8296 17.876C16.8301 17.8756 16.8304 17.8753 16.8304 17.8753C16.8305 17.8753 16.8304 17.8753 16.8304 17.8754C16.8303 17.8754 16.8303 17.8754 16.8302 17.8755C16.8302 17.8755 16.8301 17.8756 16.8301 17.8756C16.83 17.8757 16.83 17.8757 16.5 17.5ZM15.0039 18.938C14.9175 19.6295 15.3455 20.0724 15.5938 20.3385C15.8864 20.6522 16 20.793 16 21H17C17 20.3338 16.5595 19.9078 16.3251 19.6564C16.0462 19.3575 15.9743 19.237 15.9962 19.062L15.0039 18.938ZM16 21C16 21.0647 15.9653 21.2045 15.5451 21.4137C15.1441 21.6134 14.593 21.7771 13.937 21.9874C13.3072 22.1893 12.6026 22.4287 11.9945 22.7742C11.3836 23.1213 10.8204 23.6029 10.5358 24.3143L11.4643 24.6857C11.6325 24.2651 11.9833 23.9307 12.4885 23.6437C12.9965 23.355 13.6104 23.1422 14.2423 22.9396C14.8481 22.7454 15.5022 22.5523 15.9909 22.3089C16.4605 22.075 17 21.6853 17 21H16ZM10.5358 24.3143C9.49728 26.9107 9.25006 30.6204 9.25006 33.625C9.25006 35.1383 9.31309 36.4932 9.37609 37.4697C9.4076 37.9582 9.43914 38.3525 9.46286 38.6253C9.47473 38.7618 9.48464 38.8678 9.49162 38.9401C9.49511 38.9763 9.49787 39.004 9.49977 39.0228C9.50072 39.0323 9.50146 39.0395 9.50197 39.0444C9.50222 39.0469 9.50242 39.0488 9.50256 39.0501C9.50263 39.0508 9.50268 39.0513 9.50272 39.0517C9.50274 39.0518 9.50276 39.052 9.50277 39.0521C9.50278 39.0522 9.50279 39.0523 10 39C10.4973 38.9477 10.4973 38.9477 10.4973 38.9477C10.4973 38.9476 10.4973 38.9476 10.4973 38.9475C10.4973 38.9473 10.4972 38.9469 10.4972 38.9464C10.4971 38.9455 10.4969 38.9439 10.4967 38.9418C10.4963 38.9376 10.4956 38.9311 10.4947 38.9223C10.4929 38.9049 10.4903 38.8787 10.487 38.844C10.4803 38.7747 10.4707 38.6718 10.4591 38.5387C10.436 38.2725 10.405 37.8856 10.374 37.4053C10.312 36.4443 10.2501 35.1117 10.2501 33.625C10.2501 30.6296 10.5029 27.0893 11.4643 24.6857L10.5358 24.3143ZM15.5 19C15.4101 18.5082 15.4099 18.5082 15.4098 18.5082C15.4098 18.5082 15.4096 18.5082 15.4095 18.5083C15.4093 18.5083 15.4091 18.5083 15.4088 18.5084C15.4084 18.5085 15.4078 18.5086 15.4072 18.5087C15.4059 18.5089 15.4044 18.5092 15.4026 18.5096C15.399 18.5103 15.3942 18.5112 15.3884 18.5124C15.3768 18.5147 15.361 18.518 15.3412 18.5223C15.3017 18.531 15.2464 18.544 15.1783 18.562C15.0425 18.5979 14.8541 18.6543 14.6372 18.7375C14.208 18.9023 13.6439 19.1811 13.1586 19.6347L13.8415 20.3653C14.1997 20.0304 14.6356 19.8093 14.9955 19.6711C15.1732 19.6029 15.3266 19.5572 15.434 19.5288C15.4875 19.5146 15.5292 19.5049 15.5562 19.4989C15.5697 19.496 15.5795 19.4939 15.5853 19.4928C15.5882 19.4922 15.59 19.4918 15.5908 19.4917C15.5912 19.4916 15.5914 19.4916 15.5912 19.4916C15.5912 19.4916 15.591 19.4917 15.5908 19.4917C15.5907 19.4917 15.5906 19.4917 15.5905 19.4918C15.5904 19.4918 15.5903 19.4918 15.5903 19.4918C15.5901 19.4918 15.59 19.4918 15.5 19ZM13.1586 19.6347C12.7896 19.9797 12.5104 20.4033 12.3276 20.7253C12.2347 20.8891 12.1632 21.0328 12.1145 21.1366C12.0901 21.1886 12.0713 21.2309 12.0583 21.261C12.0517 21.2761 12.0466 21.2882 12.043 21.2969C12.0412 21.3013 12.0397 21.3048 12.0386 21.3075C12.0381 21.3088 12.0376 21.3099 12.0372 21.3108C12.037 21.3113 12.0369 21.3117 12.0368 21.312C12.0367 21.3122 12.0366 21.3123 12.0366 21.3125C12.0365 21.3125 12.0365 21.3126 12.0365 21.3127C12.0364 21.3128 12.0364 21.3128 12.5001 21.5C12.9637 21.6872 12.9637 21.6872 12.9636 21.6873C12.9636 21.6873 12.9636 21.6874 12.9636 21.6875C12.9636 21.6875 12.9635 21.6876 12.9635 21.6877C12.9635 21.6878 12.9634 21.6879 12.9634 21.6879C12.9634 21.6879 12.9635 21.6877 12.9637 21.6873C12.964 21.6865 12.9647 21.6849 12.9657 21.6824C12.9677 21.6776 12.9711 21.6695 12.9758 21.6586C12.9853 21.6368 13 21.6036 13.0199 21.5612C13.0597 21.4763 13.1194 21.3561 13.1973 21.2189C13.3561 20.939 13.5769 20.6126 13.8415 20.3653L13.1586 19.6347Z" fill="#EBDABF"/>
<path d="M76 31.5C80.7199 31.755 85 39 85 39C85 39 86 29.5 84 24.5C83.0944 22.236 78.5 22.5 78.5 21C78.5 20.1268 79.6083 19.8665 79.5 19C79.4127 18.3014 78.5 17.5 78.5 17.5C78.5 17.5 82 15.5 84.5 15.5C86.8513 15.5 88.5046 17.2015 89 19.5C89.2909 20.8497 88.1516 21.2579 88.5 23C89.5 28 92.7896 30.2906 93.5 35.5C93.8958 38.4021 92.7294 40.1743 93.5 43C93.6625 43.5957 93.9964 43.8825 94 44.5C94.0072 45.7503 93.1739 46.5695 92 47C90.6654 47.4894 89.9215 46 88.5 46C86 46 84 47.5 81 47.5C74 47.5 72 46 66.5 43.5C64.5 42.5909 64.3718 41.5 64.5 39C64.6282 36.5 66.357 34.5225 69 33C71.0929 31.7944 74 31.3919 76 31.5Z" fill="#FEF6E8"/>
<path d="M85 39L85.4973 39.0523L84.5695 39.2543L85 39ZM76 31.5L76.027 31.0007L76 31.5ZM69 33L69.2496 33.4333L69 33ZM66.5 43.5L66.7069 43.0448L66.5 43.5ZM92 47L92.1722 47.4694H92.1722L92 47ZM94 44.5L94.5 44.4971L94 44.5ZM93.5 43L93.9824 42.8684H93.9824L93.5 43ZM93.5 35.5L93.9954 35.4324H93.9954L93.5 35.5ZM88.5 23L88.0097 23.0981L88.5 23ZM89 19.5L88.5112 19.6054L89 19.5ZM84.5 15.5L84.5 15L84.5 15.5ZM78.5 17.5L78.1701 17.8757C78.0487 17.7691 77.9863 17.6105 78.0025 17.4497C78.0188 17.289 78.1117 17.146 78.2519 17.0659L78.5 17.5ZM84 24.5L83.5358 24.6857L84 24.5ZM81.5 20L81.1586 20.3653L81.5 20ZM82.9637 21.3128C83.067 21.5689 82.9432 21.8603 82.6872 21.9637C82.4311 22.067 82.1397 21.9432 82.0363 21.6872L82.9637 21.3128ZM85 39C84.5695 39.2543 84.5696 39.2544 84.5696 39.2544C84.5696 39.2544 84.5696 39.2544 84.5696 39.2544C84.5695 39.2543 84.5694 39.2541 84.5692 39.2538C84.5688 39.2532 84.5682 39.2521 84.5673 39.2507C84.5656 39.2477 84.5628 39.2431 84.559 39.2368C84.5514 39.2241 84.5398 39.2049 84.5243 39.1795C84.4932 39.1287 84.4464 39.0532 84.3849 38.9564C84.2619 38.7629 84.0801 38.4847 83.847 38.1494C83.3802 37.478 82.7106 36.582 81.8984 35.6802C81.0848 34.7768 80.1381 33.879 79.1187 33.1946C78.0971 32.5086 77.0315 32.0565 75.973 31.9993L76.027 31.0007C77.3285 31.071 78.5679 31.6202 79.6762 32.3643C80.7868 33.1101 81.7951 34.0713 82.6415 35.011C83.4893 35.9524 84.1848 36.8836 84.668 37.5786C84.9099 37.9265 85.0994 38.2163 85.2288 38.42C85.2936 38.5218 85.3434 38.6022 85.3773 38.6576C85.3943 38.6854 85.4073 38.7069 85.4162 38.7217C85.4206 38.7291 85.424 38.7348 85.4264 38.7388C85.4276 38.7408 85.4286 38.7424 85.4293 38.7436C85.4296 38.7441 85.4299 38.7446 85.4301 38.745C85.4302 38.7451 85.4303 38.7453 85.4303 38.7454C85.4304 38.7456 85.4305 38.7457 85 39ZM75.973 31.9993C74.0364 31.8946 71.2337 32.2903 69.2496 33.4333L68.7504 32.5667C70.952 31.2986 73.9636 30.8892 76.027 31.0007L75.973 31.9993ZM69.2496 33.4333C66.6716 34.9183 65.1149 36.7718 64.9994 39.0256L64.0007 38.9744C64.1415 36.2282 66.0425 34.1266 68.7504 32.5667L69.2496 33.4333ZM64.9994 39.0256C64.9344 40.2927 64.9466 41.084 65.1692 41.6687C65.3718 42.2009 65.7764 42.6219 66.7069 43.0448L66.2931 43.9552C65.2236 43.4691 64.5641 42.89 64.2346 42.0245C63.9252 41.2115 63.9374 40.2073 64.0007 38.9744L64.9994 39.0256ZM66.7069 43.0448C69.4942 44.3118 71.3162 45.2867 73.3456 45.9632C75.3457 46.6298 77.5402 47 81 47V48C77.4598 48 75.1543 47.6202 73.0294 46.9118C70.9338 46.2133 69.0058 45.1882 66.2931 43.9552L66.7069 43.0448ZM81 47C82.4161 47 83.6015 46.6476 84.7869 46.2732C85.9558 45.9041 87.1582 45.5 88.5 45.5V46.5C87.3418 46.5 86.2942 46.8459 85.0881 47.2268C83.8985 47.6024 82.5839 48 81 48V47ZM88.5 45.5C89.3776 45.5 90.0525 45.9689 90.5356 46.2523C91.0544 46.5566 91.3917 46.6905 91.8279 46.5306L92.1722 47.4694C91.2737 47.7989 90.5717 47.4328 90.0296 47.1148C89.4518 46.7758 89.0439 46.5 88.5 46.5V45.5ZM91.8279 46.5306C92.8854 46.1427 93.5056 45.4669 93.5 44.5029L94.5 44.4971C94.5089 46.0336 93.4623 46.9963 92.1722 47.4694L91.8279 46.5306ZM93.5 44.5029C93.4988 44.297 93.4467 44.1466 93.3565 43.9533C93.2691 43.7661 93.1137 43.4837 93.0176 43.1316L93.9824 42.8684C94.0488 43.112 94.1416 43.2709 94.2627 43.5304C94.381 43.7838 94.4976 44.0855 94.5 44.4971L93.5 44.5029ZM93.0176 43.1316C92.6057 41.6213 92.7154 40.3919 92.8633 39.2162C93.0115 38.0387 93.1918 36.9406 93.0046 35.5676L93.9954 35.4324C94.2039 36.9615 93.999 38.2005 93.8555 39.341C93.7118 40.4835 93.6236 41.553 93.9824 42.8684L93.0176 43.1316ZM93.0046 35.5676C92.6631 33.0629 91.7049 31.2581 90.6725 29.4159C89.6424 27.5781 88.5277 25.688 88.0097 23.0981L88.9903 22.9019C89.4723 25.312 90.5024 27.0672 91.5448 28.927C92.5847 30.7825 93.6266 32.7277 93.9954 35.4324L93.0046 35.5676ZM88.0097 23.0981C87.8071 22.085 88.046 21.4372 88.2674 20.9095C88.4789 20.4053 88.6192 20.106 88.5112 19.6054L89.4888 19.3946C89.6718 20.2437 89.3879 20.8234 89.1895 21.2963C89.0011 21.7455 88.8445 22.1729 88.9903 22.9019L88.0097 23.0981ZM88.5112 19.6054C88.0526 17.4778 86.5599 16 84.5 16L84.5 15C87.1426 15 88.9565 16.9253 89.4888 19.3946L88.5112 19.6054ZM84.5 16C83.3559 16 81.934 16.4651 80.7565 16.9608C80.1767 17.205 79.6724 17.4494 79.3133 17.6328C79.134 17.7244 78.9913 17.8005 78.8941 17.8533C78.8455 17.8798 78.8083 17.9003 78.7836 17.9141C78.7713 17.921 78.762 17.9262 78.7561 17.9296C78.7531 17.9313 78.7509 17.9325 78.7496 17.9333C78.7489 17.9337 78.7484 17.9339 78.7482 17.9341C78.7481 17.9341 78.748 17.9342 78.748 17.9342C78.748 17.9342 78.748 17.9342 78.748 17.9342C78.748 17.9342 78.7481 17.9341 78.5 17.5C78.2519 17.0659 78.252 17.0658 78.2521 17.0658C78.2522 17.0658 78.2523 17.0657 78.2524 17.0656C78.2526 17.0655 78.2528 17.0654 78.2531 17.0652C78.2537 17.0649 78.2545 17.0644 78.2555 17.0638C78.2576 17.0627 78.2605 17.061 78.2642 17.0589C78.2716 17.0547 78.2824 17.0487 78.2962 17.0409C78.324 17.0254 78.3645 17.0031 78.4165 16.9748C78.5204 16.9183 78.6707 16.8381 78.8586 16.7422C79.2338 16.5506 79.7608 16.295 80.3685 16.0392C81.566 15.535 83.1441 15 84.5 15L84.5 16ZM78.5 17.5C78.8299 17.1243 78.83 17.1244 78.8301 17.1244C78.8301 17.1244 78.8302 17.1245 78.8302 17.1246C78.8304 17.1247 78.8305 17.1248 78.8307 17.1249C78.831 17.1252 78.8313 17.1255 78.8317 17.1259C78.8326 17.1266 78.8336 17.1275 78.8349 17.1286C78.8374 17.1309 78.8407 17.1339 78.8449 17.1377C78.8533 17.1452 78.8648 17.1557 78.8792 17.169C78.9079 17.1956 78.9479 17.2335 78.9957 17.2808C79.0909 17.375 79.2193 17.5091 79.3518 17.6684C79.5971 17.9636 79.9332 18.4347 79.9962 18.938L79.0039 19.062C78.9795 18.8667 78.8156 18.5878 78.5827 18.3076C78.4761 18.1793 78.3709 18.0694 78.2922 17.9915C78.2531 17.9528 78.2212 17.9226 78.1996 17.9026C78.1888 17.8926 78.1807 17.8852 78.1757 17.8807C78.1731 17.8784 78.1714 17.8768 78.1704 17.876C78.1699 17.8756 78.1697 17.8753 78.1696 17.8753C78.1696 17.8753 78.1696 17.8753 78.1697 17.8754C78.1697 17.8754 78.1698 17.8754 78.1699 17.8755C78.1699 17.8755 78.17 17.8756 78.17 17.8756C78.17 17.8757 78.1701 17.8757 78.5 17.5ZM79.9962 18.938C80.0826 19.6295 79.6545 20.0724 79.4063 20.3385C79.1137 20.6522 79 20.793 79 21H78C78 20.3338 78.4405 19.9078 78.675 19.6564C78.9538 19.3575 79.0258 19.237 79.0039 19.062L79.9962 18.938ZM79 21C79 21.0647 79.0348 21.2045 79.4549 21.4137C79.8559 21.6134 80.407 21.7771 81.063 21.9874C81.6929 22.1893 82.3974 22.4287 83.0056 22.7742C83.6165 23.1213 84.1797 23.6029 84.4642 24.3143L83.5358 24.6857C83.3675 24.2651 83.0168 23.9307 82.5116 23.6437C82.0036 23.355 81.3897 23.1422 80.7578 22.9396C80.152 22.7454 79.4979 22.5523 79.0091 22.3089C78.5396 22.075 78 21.6853 78 21H79ZM84.4642 24.3143C85.5028 26.9107 85.75 30.6204 85.75 33.625C85.75 35.1383 85.687 36.4932 85.624 37.4697C85.5925 37.9582 85.5609 38.3525 85.5372 38.6253C85.5253 38.7618 85.5154 38.8678 85.5084 38.9401C85.505 38.9763 85.5022 39.004 85.5003 39.0228C85.4993 39.0323 85.4986 39.0395 85.4981 39.0444C85.4978 39.0469 85.4976 39.0488 85.4975 39.0501C85.4974 39.0508 85.4974 39.0513 85.4973 39.0517C85.4973 39.0518 85.4973 39.052 85.4973 39.0521C85.4973 39.0522 85.4973 39.0523 85 39C84.5028 38.9477 84.5028 38.9477 84.5028 38.9477C84.5028 38.9476 84.5028 38.9476 84.5028 38.9475C84.5028 38.9473 84.5028 38.9469 84.5029 38.9464C84.503 38.9455 84.5032 38.9439 84.5034 38.9418C84.5038 38.9376 84.5045 38.9311 84.5054 38.9223C84.5071 38.9049 84.5097 38.8787 84.5131 38.844C84.5198 38.7747 84.5294 38.6718 84.541 38.5387C84.5641 38.2725 84.5951 37.8856 84.626 37.4053C84.688 36.4443 84.75 35.1117 84.75 33.625C84.75 30.6296 84.4972 27.0893 83.5358 24.6857L84.4642 24.3143ZM79.5 19C79.59 18.5082 79.5901 18.5082 79.5903 18.5082C79.5903 18.5082 79.5904 18.5082 79.5905 18.5083C79.5908 18.5083 79.591 18.5083 79.5912 18.5084C79.5917 18.5085 79.5923 18.5086 79.5929 18.5087C79.5941 18.5089 79.5957 18.5092 79.5975 18.5096C79.6011 18.5103 79.6058 18.5112 79.6116 18.5124C79.6232 18.5147 79.6391 18.518 79.6589 18.5223C79.6984 18.531 79.7536 18.544 79.8217 18.562C79.9576 18.5979 80.146 18.6543 80.3629 18.7375C80.7921 18.9023 81.3562 19.1811 81.8414 19.6347L81.1586 20.3653C80.8004 20.0304 80.3645 19.8093 80.0045 19.6711C79.8269 19.6029 79.6735 19.5572 79.5661 19.5288C79.5126 19.5146 79.4709 19.5049 79.4439 19.4989C79.4304 19.496 79.4206 19.4939 79.4148 19.4928C79.4119 19.4922 79.41 19.4918 79.4092 19.4917C79.4088 19.4916 79.4087 19.4916 79.4088 19.4916C79.4089 19.4916 79.409 19.4917 79.4092 19.4917C79.4093 19.4917 79.4095 19.4917 79.4096 19.4918C79.4097 19.4918 79.4098 19.4918 79.4098 19.4918C79.4099 19.4918 79.41 19.4918 79.5 19ZM81.8414 19.6347C82.2105 19.9797 82.4897 20.4033 82.6725 20.7253C82.7654 20.8891 82.8369 21.0328 82.8855 21.1366C82.9099 21.1886 82.9287 21.2309 82.9418 21.261C82.9483 21.2761 82.9534 21.2882 82.9571 21.2969C82.9589 21.3013 82.9604 21.3048 82.9615 21.3075C82.962 21.3088 82.9625 21.3099 82.9628 21.3108C82.963 21.3113 82.9632 21.3117 82.9633 21.312C82.9634 21.3122 82.9634 21.3123 82.9635 21.3125C82.9635 21.3125 82.9636 21.3126 82.9636 21.3127C82.9636 21.3128 82.9637 21.3128 82.5 21.5C82.0363 21.6872 82.0364 21.6872 82.0364 21.6873C82.0364 21.6873 82.0365 21.6874 82.0365 21.6875C82.0365 21.6875 82.0365 21.6876 82.0366 21.6877C82.0366 21.6878 82.0366 21.6879 82.0366 21.6879C82.0366 21.6879 82.0366 21.6877 82.0364 21.6873C82.0361 21.6865 82.0354 21.6849 82.0344 21.6824C82.0324 21.6776 82.029 21.6695 82.0242 21.6586C82.0148 21.6368 82 21.6036 81.9802 21.5612C81.9403 21.4763 81.8806 21.3561 81.8027 21.2189C81.6439 20.939 81.4231 20.6126 81.1586 20.3653L81.8414 19.6347Z" fill="#EBDABF"/>
<path d="M64.2833 69.4404C68.9084 70.4156 74.9178 64.5253 74.9178 64.5253C74.9178 64.5253 73.4249 73.9604 70.199 78.2724C68.7383 80.2249 64.3688 78.7807 63.9805 80.2296C63.7545 81.0731 64.7577 81.6114 64.4288 82.4203C64.1637 83.0725 63.0747 83.6104 63.0747 83.6104C63.0747 83.6104 65.9378 86.4481 68.3526 87.0951C70.6237 87.7037 72.6611 86.488 73.7345 84.3961C74.3649 83.1677 73.37 82.4785 74.1574 80.886C76.4174 76.3152 80.1879 74.954 82.2223 70.106C83.3557 67.4052 82.6877 65.3915 84.1634 62.8615C84.4746 62.3282 84.8714 62.1376 85.0346 61.5421C85.3652 60.3363 84.7723 59.3292 83.7498 58.6096C82.5874 57.7914 81.4834 59.0376 80.1103 58.6697C77.6954 58.0226 76.1518 56.0561 73.2541 55.2796C66.4926 53.4679 64.1725 54.3991 58.2128 55.3905C56.0457 55.7509 55.6395 56.7715 55.1163 59.2195C54.5931 61.6675 55.7512 64.0251 57.9101 66.1797C59.6196 67.8859 62.3235 69.0271 64.2833 69.4404Z" fill="#FEF6E8"/>
<path d="M74.9178 64.5253L75.4117 64.6034L74.5678 64.1682L74.9178 64.5253ZM64.2833 69.4404L64.1801 69.9296L64.2833 69.4404ZM57.9101 66.1797L58.2633 65.8258L57.9101 66.1797ZM58.2128 55.3905L58.2949 55.8837L58.2128 55.3905ZM83.7498 58.6096L84.0376 58.2007L84.0376 58.2007L83.7498 58.6096ZM85.0346 61.5421L85.5168 61.6743L85.0346 61.5421ZM84.1634 62.8615L84.5953 63.1135L84.5953 63.1135L84.1634 62.8615ZM82.2223 70.106L82.6834 70.2995L82.6834 70.2995L82.2223 70.106ZM74.1574 80.886L73.7092 80.6644L74.1574 80.886ZM73.7345 84.3961L73.2897 84.1678L73.7345 84.3961ZM68.3526 87.0951L68.2232 87.5781L68.3526 87.0951ZM63.0747 83.6104L62.8532 83.1621C62.7084 83.2336 62.6071 83.3707 62.5811 83.5302C62.5552 83.6896 62.608 83.8518 62.7227 83.9655L63.0747 83.6104ZM70.199 78.2724L69.7986 77.9729L70.199 78.2724ZM66.6195 81.972L66.3842 81.5308L66.6195 81.972ZM68.3731 81.0827C68.5392 80.8621 68.495 80.5486 68.2744 80.3825C68.0538 80.2164 67.7403 80.2606 67.5742 80.4812L68.3731 81.0827ZM74.9178 64.5253C74.5678 64.1682 74.5679 64.1682 74.5679 64.1681C74.5679 64.1681 74.5679 64.1681 74.5679 64.1682C74.5678 64.1682 74.5676 64.1684 74.5674 64.1686C74.5669 64.1691 74.566 64.17 74.5648 64.1712C74.5623 64.1736 74.5584 64.1774 74.5531 64.1825C74.5425 64.1927 74.5263 64.2083 74.5047 64.2288C74.4616 64.2698 74.3968 64.3306 74.3124 64.4082C74.1435 64.5633 73.8958 64.7849 73.5839 65.0485C72.9592 65.5762 72.0806 66.2683 71.0627 66.9292C70.0429 67.5912 68.8961 68.2134 67.7344 68.6107C66.5699 69.0089 65.4237 69.1698 64.3865 68.9511L64.1801 69.9296C65.4555 70.1985 66.7948 69.9889 68.0579 69.5569C69.3237 69.1241 70.5465 68.4566 71.6072 67.7679C72.6698 67.0781 73.5826 66.3586 74.2292 65.8124C74.5529 65.5389 74.8109 65.308 74.9887 65.1448C75.0776 65.0632 75.1465 64.9984 75.1936 64.9536C75.2172 64.9312 75.2353 64.9138 75.2477 64.9018C75.2539 64.8958 75.2587 64.8912 75.2621 64.8879C75.2638 64.8863 75.2651 64.885 75.266 64.8841C75.2665 64.8836 75.2669 64.8832 75.2672 64.8829C75.2673 64.8828 75.2675 64.8827 75.2676 64.8826C75.2677 64.8825 75.2678 64.8824 74.9178 64.5253ZM64.3865 68.9511C62.4887 68.5509 59.884 67.4434 58.2633 65.8258L57.5569 66.5336C59.3552 68.3284 62.1583 69.5032 64.1801 69.9296L64.3865 68.9511ZM58.2633 65.8258C56.1575 63.7242 55.1336 61.5309 55.6053 59.324L54.6274 59.115C54.0526 61.804 55.3449 64.326 57.5569 66.5336L58.2633 65.8258ZM55.6053 59.324C55.8705 58.0832 56.0871 57.3221 56.4534 56.8149C56.7868 56.3533 57.2866 56.0514 58.2949 55.8837L58.1308 54.8972C56.9719 55.09 56.1851 55.4786 55.6428 56.2294C55.1335 56.9346 54.8854 57.9078 54.6274 59.115L55.6053 59.324ZM58.2949 55.8837C61.3151 55.3813 63.3274 54.9112 65.4627 54.783C67.5672 54.6567 69.7827 54.8671 73.1247 55.7626L73.3835 54.7967C69.9639 53.8804 67.6386 53.6506 65.4028 53.7848C63.1978 53.9172 61.0702 54.4083 58.1308 54.8972L58.2949 55.8837ZM73.1247 55.7626C74.4925 56.1291 75.5463 56.7764 76.5944 57.4448C77.628 58.1038 78.6848 58.8053 79.9809 59.1526L80.2397 58.1867C79.1209 57.8869 78.1985 57.2817 77.1321 56.6016C76.0803 55.9309 74.9134 55.2066 73.3835 54.7967L73.1247 55.7626ZM79.9809 59.1526C80.8286 59.3798 81.6018 59.1015 82.1418 58.9528C82.7217 58.7931 83.0822 58.7511 83.462 59.0185L84.0376 58.2007C83.255 57.6499 82.4823 57.8219 81.8763 57.9887C81.2304 58.1666 80.765 58.3275 80.2397 58.1867L79.9809 59.1526ZM83.462 59.0185C84.3832 59.6668 84.8073 60.4801 84.5524 61.4099L85.5168 61.6743C85.9231 60.1924 85.1613 58.9916 84.0376 58.2007L83.462 59.0185ZM84.5524 61.4099C84.498 61.6084 84.4087 61.7403 84.2716 61.9036C84.1387 62.0618 83.9155 62.2943 83.7316 62.6096L84.5953 63.1135C84.7226 62.8954 84.8533 62.7659 85.0374 62.5466C85.2173 62.3324 85.408 62.0712 85.5168 61.6743L84.5524 61.4099ZM83.7316 62.6096C82.9428 63.9618 82.7306 65.1778 82.5691 66.3516C82.4075 67.5273 82.2975 68.6347 81.7613 69.9125L82.6834 70.2995C83.2805 68.8765 83.4032 67.6267 83.5598 66.4878C83.7167 65.3472 83.9083 64.2912 84.5953 63.1135L83.7316 62.6096ZM81.7613 69.9125C80.7831 72.2434 79.3905 73.7387 77.9164 75.2509C76.4458 76.7595 74.8799 78.2967 73.7092 80.6644L74.6056 81.1076C75.695 78.9044 77.1443 77.4756 78.6325 75.9489C80.1172 74.4259 81.6271 72.8166 82.6834 70.2995L81.7613 69.9125ZM73.7092 80.6644C73.2513 81.5905 73.3144 82.278 73.3917 82.8451C73.4654 83.3868 73.5235 83.7122 73.2897 84.1678L74.1794 84.6244C74.5759 83.8516 74.4517 83.2182 74.3825 82.7101C74.3168 82.2274 74.2761 81.774 74.6056 81.1076L73.7092 80.6644ZM73.2897 84.1678C72.296 86.1042 70.4717 87.1453 68.482 86.6122L68.2232 87.5781C70.7758 88.2621 73.0261 86.8718 74.1794 84.6244L73.2897 84.1678ZM68.482 86.6122C67.3769 86.3161 66.1238 85.4988 65.1148 84.7152C64.6179 84.3293 64.1941 83.9627 63.8947 83.6926C63.7451 83.5577 63.627 83.4473 63.5468 83.3711C63.5067 83.333 63.4761 83.3035 63.4558 83.2837C63.4456 83.2739 63.4381 83.2665 63.4332 83.2617C63.4307 83.2593 63.429 83.2575 63.4279 83.2564C63.4273 83.2559 63.4269 83.2555 63.4267 83.2553C63.4266 83.2552 63.4266 83.2552 63.4266 83.2552C63.4266 83.2552 63.4266 83.2552 63.4266 83.2552C63.4266 83.2552 63.4266 83.2552 63.0747 83.6104C62.7227 83.9655 62.7228 83.9656 62.7228 83.9656C62.7229 83.9657 62.723 83.9658 62.723 83.9658C62.7232 83.966 62.7234 83.9662 62.7237 83.9664C62.7241 83.9669 62.7248 83.9676 62.7256 83.9684C62.7273 83.9701 62.7297 83.9724 62.7327 83.9754C62.7388 83.9814 62.7476 83.99 62.759 84.001C62.7819 84.0232 62.8151 84.0553 62.858 84.0961C62.9438 84.1776 63.0683 84.2939 63.2249 84.4351C63.5377 84.7174 63.9806 85.1006 64.5014 85.505C65.5276 86.302 66.9135 87.2271 68.2232 87.5781L68.482 86.6122ZM63.0747 83.6104C63.2961 84.0587 63.2962 84.0586 63.2963 84.0586C63.2963 84.0586 63.2964 84.0585 63.2965 84.0585C63.2966 84.0584 63.2968 84.0583 63.297 84.0582C63.2973 84.0581 63.2978 84.0578 63.2983 84.0576C63.2992 84.0571 63.3005 84.0565 63.302 84.0557C63.305 84.0542 63.309 84.0522 63.314 84.0496C63.3241 84.0445 63.338 84.0374 63.3553 84.0282C63.3899 84.01 63.4383 83.9838 63.4968 83.9504C63.613 83.8841 63.7718 83.7878 63.941 83.6681C64.2543 83.4465 64.701 83.0784 64.892 82.6086L63.9656 82.232C63.8915 82.4143 63.6611 82.6413 63.3636 82.8517C63.2274 82.948 63.0974 83.027 63.0012 83.0819C62.9534 83.1091 62.9147 83.13 62.8887 83.1437C62.8757 83.1506 62.866 83.1556 62.8599 83.1587C62.8569 83.1602 62.8547 83.1613 62.8536 83.1619C62.8531 83.1622 62.8527 83.1623 62.8527 83.1624C62.8526 83.1624 62.8527 83.1624 62.8528 83.1623C62.8528 83.1623 62.8529 83.1622 62.853 83.1622C62.853 83.1622 62.8531 83.1622 62.8531 83.1621C62.8532 83.1621 62.8532 83.1621 63.0747 83.6104ZM64.892 82.6086C65.1545 81.9631 64.8556 81.4245 64.6847 81.1031C64.4833 80.7244 64.4099 80.559 64.4635 80.359L63.4976 80.1002C63.3252 80.7437 63.6404 81.2692 63.8018 81.5727C63.9938 81.9336 64.0321 82.0686 63.9656 82.232L64.892 82.6086ZM64.4635 80.359C64.4803 80.2965 64.55 80.1705 65.01 80.0771C65.449 79.988 66.0237 79.9726 66.7118 79.9393C67.3724 79.9073 68.1149 79.8583 68.7918 79.682C69.4717 79.5049 70.1403 79.1854 70.5993 78.5719L69.7986 77.9729C69.5273 78.3356 69.1019 78.5678 68.5396 78.7143C67.9742 78.8616 67.3262 78.9083 66.6634 78.9404C66.028 78.9712 65.3462 78.9885 64.8111 79.0971C64.297 79.2015 63.6749 79.4383 63.4976 80.1002L64.4635 80.359ZM70.5993 78.5719C72.2745 76.3328 73.4734 72.8134 74.2511 69.9112C74.6428 68.4495 74.9325 67.1245 75.1244 66.1649C75.2204 65.685 75.292 65.2959 75.3397 65.0262C75.3636 64.8914 75.3814 64.7863 75.3934 64.7147C75.3994 64.6789 75.4039 64.6514 75.4069 64.6327C75.4085 64.6234 75.4096 64.6162 75.4104 64.6113C75.4108 64.6089 75.4111 64.607 75.4113 64.6057C75.4114 64.605 75.4115 64.6045 75.4115 64.6041C75.4116 64.6039 75.4116 64.6038 75.4116 64.6037C75.4116 64.6035 75.4117 64.6034 74.9178 64.5253C74.4239 64.4471 74.424 64.4471 74.4239 64.4471C74.4239 64.4472 74.4239 64.4472 74.4239 64.4473C74.4239 64.4475 74.4238 64.4479 74.4238 64.4484C74.4236 64.4493 74.4234 64.4509 74.423 64.453C74.4223 64.4572 74.4213 64.4636 74.4199 64.4723C74.4171 64.4895 74.4128 64.5156 74.4071 64.5499C74.3956 64.6186 74.3783 64.7205 74.355 64.852C74.3084 65.1152 74.2382 65.4969 74.1438 65.9688C73.955 66.9131 73.6699 68.2164 73.2852 69.6524C72.5099 72.5458 71.3494 75.9 69.7986 77.9729L70.5993 78.5719ZM64.4288 82.4203C64.3884 82.9187 64.3886 82.9187 64.3887 82.9187C64.3888 82.9187 64.3889 82.9187 64.389 82.9187C64.3892 82.9187 64.3894 82.9187 64.3897 82.9188C64.3902 82.9188 64.3907 82.9188 64.3914 82.9189C64.3926 82.919 64.3942 82.9191 64.396 82.9192C64.3997 82.9195 64.4045 82.9198 64.4104 82.9202C64.4222 82.921 64.4384 82.9219 64.4586 82.9228C64.4991 82.9246 64.5558 82.9264 64.6262 82.9266C64.7667 82.9271 64.9633 82.9214 65.1944 82.8971C65.6516 82.8491 66.2686 82.7258 66.8548 82.4132L66.3842 81.5308C65.9516 81.7615 65.4733 81.8623 65.0899 81.9026C64.9006 81.9225 64.7406 81.927 64.6295 81.9267C64.5741 81.9265 64.5314 81.9251 64.5037 81.9238C64.4899 81.9232 64.4799 81.9226 64.474 81.9222C64.4711 81.9221 64.4692 81.9219 64.4684 81.9219C64.468 81.9218 64.4679 81.9218 64.468 81.9218C64.4681 81.9218 64.4682 81.9218 64.4684 81.9219C64.4685 81.9219 64.4686 81.9219 64.4688 81.9219C64.4688 81.9219 64.4689 81.9219 64.469 81.9219C64.4691 81.9219 64.4692 81.9219 64.4288 82.4203ZM66.8548 82.4132C67.3005 82.1755 67.6798 81.8386 67.9397 81.5749C68.0718 81.4407 68.1781 81.3204 68.252 81.2327C68.289 81.1888 68.3181 81.1528 68.3385 81.1271C68.3487 81.1142 68.3568 81.1039 68.3626 81.0964C68.3655 81.0927 68.3678 81.0896 68.3695 81.0873C68.3704 81.0862 68.3711 81.0852 68.3717 81.0845C68.372 81.0841 68.3723 81.0837 68.3725 81.0834C68.3726 81.0833 68.3727 81.0832 68.3728 81.083C68.3729 81.083 68.3729 81.0829 68.3729 81.0829C68.373 81.0828 68.3731 81.0827 67.9736 80.7819C67.5742 80.4812 67.5743 80.4811 67.5743 80.481C67.5743 80.481 67.5744 80.4809 67.5744 80.4809C67.5745 80.4808 67.5745 80.4808 67.5746 80.4807C67.5746 80.4806 67.5747 80.4806 67.5747 80.4805C67.5747 80.4805 67.5746 80.4807 67.5743 80.481C67.5738 80.4817 67.5727 80.4831 67.5711 80.4852C67.5679 80.4894 67.5625 80.4963 67.5551 80.5056C67.5404 80.5242 67.5175 80.5525 67.4874 80.5883C67.4269 80.66 67.3381 80.7606 67.2274 80.873C67.0015 81.1022 66.7038 81.3604 66.3842 81.5308L66.8548 82.4132Z" fill="#EBDABF"/>
<path d="M31.5278 69.4404C26.9028 70.4156 20.8934 64.5253 20.8934 64.5253C20.8934 64.5253 22.3862 73.9604 25.6122 78.2724C27.0729 80.2249 31.4424 78.7807 31.8306 80.2296C32.0566 81.0731 31.0534 81.6114 31.3823 82.4203C31.6475 83.0725 32.7365 83.6104 32.7365 83.6104C32.7365 83.6104 29.8734 86.4481 27.4586 87.0951C25.1874 87.7037 23.1501 86.488 22.0766 84.3961C21.4463 83.1677 22.4411 82.4785 21.6537 80.886C19.3937 76.3152 15.6233 74.954 13.5889 70.106C12.4555 67.4052 13.1235 65.3915 11.6477 62.8615C11.3366 62.3282 10.9398 62.1376 10.7765 61.5421C10.4459 60.3363 11.0389 59.3292 12.0613 58.6096C13.2238 57.7914 14.3278 59.0376 15.7009 58.6697C18.1157 58.0226 19.6593 56.0561 22.5571 55.2796C29.3186 53.4679 31.6387 54.3991 37.5983 55.3905C39.7654 55.7509 40.1716 56.7715 40.6948 59.2195C41.218 61.6675 40.06 64.0251 37.9011 66.1797C36.1916 67.8859 33.4877 69.0271 31.5278 69.4404Z" fill="#FEF6E8"/>
<path d="M20.8934 64.5253L20.3995 64.6034L21.2434 64.1682L20.8934 64.5253ZM31.5278 69.4404L31.631 69.9296L31.5278 69.4404ZM37.9011 66.1797L37.5479 65.8258L37.9011 66.1797ZM37.5983 55.3905L37.5163 55.8837L37.5983 55.3905ZM12.0613 58.6096L11.7735 58.2007L11.7735 58.2007L12.0613 58.6096ZM10.7765 61.5421L10.2943 61.6743L10.7765 61.5421ZM11.6477 62.8615L11.2158 63.1135L11.2158 63.1135L11.6477 62.8615ZM13.5889 70.106L13.1278 70.2995L13.1278 70.2995L13.5889 70.106ZM21.6537 80.886L22.1019 80.6644L21.6537 80.886ZM22.0766 84.3961L22.5215 84.1678L22.0766 84.3961ZM27.4586 87.0951L27.588 87.5781L27.4586 87.0951ZM32.7365 83.6104L32.9579 83.1621C33.1027 83.2336 33.2041 83.3707 33.23 83.5302C33.2559 83.6896 33.2032 83.8518 33.0885 83.9655L32.7365 83.6104ZM25.6122 78.2724L26.0125 77.9729L25.6122 78.2724ZM29.1917 81.972L29.4269 81.5308L29.1917 81.972ZM27.4381 81.0827C27.272 80.8621 27.3161 80.5486 27.5367 80.3825C27.7573 80.2164 28.0708 80.2606 28.2369 80.4812L27.4381 81.0827ZM20.8934 64.5253C21.2434 64.1682 21.2433 64.1682 21.2433 64.1681C21.2433 64.1681 21.2433 64.1681 21.2433 64.1682C21.2434 64.1682 21.2435 64.1684 21.2438 64.1686C21.2443 64.1691 21.2452 64.17 21.2464 64.1712C21.2489 64.1736 21.2528 64.1774 21.258 64.1825C21.2686 64.1927 21.2848 64.2083 21.3064 64.2288C21.3496 64.2698 21.4143 64.3306 21.4988 64.4082C21.6677 64.5633 21.9153 64.7849 22.2273 65.0485C22.8519 65.5762 23.7305 66.2683 24.7485 66.9292C25.7682 67.5912 26.915 68.2134 28.0768 68.6107C29.2412 69.0089 30.3875 69.1698 31.4247 68.9511L31.631 69.9296C30.3557 70.1985 29.0164 69.9889 27.7532 69.5569C26.4874 69.1241 25.2647 68.4566 24.2039 67.7679C23.1414 67.0781 22.2285 66.3586 21.5819 65.8124C21.2582 65.5389 21.0002 65.308 20.8225 65.1448C20.7335 65.0632 20.6646 64.9984 20.6175 64.9536C20.594 64.9312 20.5759 64.9138 20.5634 64.9018C20.5572 64.8958 20.5524 64.8912 20.5491 64.8879C20.5474 64.8863 20.5461 64.885 20.5451 64.8841C20.5446 64.8836 20.5443 64.8832 20.544 64.8829C20.5438 64.8828 20.5437 64.8827 20.5436 64.8826C20.5435 64.8825 20.5434 64.8824 20.8934 64.5253ZM31.4247 68.9511C33.3224 68.5509 35.9272 67.4434 37.5479 65.8258L38.2543 66.5336C36.456 68.3284 33.6529 69.5032 31.631 69.9296L31.4247 68.9511ZM37.5479 65.8258C39.6537 63.7242 40.6776 61.5309 40.2059 59.324L41.1838 59.115C41.7585 61.804 40.4663 64.326 38.2543 66.5336L37.5479 65.8258ZM40.2059 59.324C39.9407 58.0832 39.7241 57.3221 39.3577 56.8149C39.0243 56.3533 38.5245 56.0514 37.5163 55.8837L37.6804 54.8972C38.8392 55.09 39.6261 55.4786 40.1684 56.2294C40.6777 56.9346 40.9258 57.9078 41.1838 59.115L40.2059 59.324ZM37.5163 55.8837C34.496 55.3813 32.4838 54.9112 30.3484 54.783C28.244 54.6567 26.0284 54.8671 22.6865 55.7626L22.4277 54.7967C25.8472 53.8804 28.1725 53.6506 30.4084 53.7848C32.6133 53.9172 34.741 54.4083 37.6804 54.8972L37.5163 55.8837ZM22.6865 55.7626C21.3187 56.1291 20.2649 56.7764 19.2167 57.4448C18.1832 58.1038 17.1264 58.8053 15.8303 59.1526L15.5715 58.1867C16.6902 57.8869 17.6126 57.2817 18.6791 56.6016C19.7309 55.9309 20.8978 55.2066 22.4277 54.7967L22.6865 55.7626ZM15.8303 59.1526C14.9826 59.3798 14.2094 59.1015 13.6694 58.9528C13.0894 58.7931 12.729 58.7511 12.3491 59.0185L11.7735 58.2007C12.5561 57.6499 13.3289 57.8219 13.9349 57.9887C14.5808 58.1666 15.0461 58.3275 15.5715 58.1867L15.8303 59.1526ZM12.3491 59.0185C11.4279 59.6668 11.0038 60.4801 11.2587 61.4099L10.2943 61.6743C9.88805 60.1924 10.6499 58.9916 11.7735 58.2007L12.3491 59.0185ZM11.2587 61.4099C11.3132 61.6084 11.4024 61.7403 11.5396 61.9036C11.6724 62.0618 11.8957 62.2943 12.0796 62.6096L11.2158 63.1135C11.0886 62.8954 10.9579 62.7659 10.7738 62.5466C10.5939 62.3324 10.4031 62.0712 10.2943 61.6743L11.2587 61.4099ZM12.0796 62.6096C12.8684 63.9618 13.0806 65.1778 13.242 66.3516C13.4037 67.5273 13.5137 68.6347 14.0499 69.9125L13.1278 70.2995C12.5307 68.8765 12.4079 67.6267 12.2513 66.4878C12.0945 65.3472 11.9028 64.2912 11.2158 63.1135L12.0796 62.6096ZM14.0499 69.9125C15.0281 72.2434 16.4206 73.7387 17.8947 75.2509C19.3653 76.7595 20.9313 78.2967 22.1019 80.6644L21.2055 81.1076C20.1162 78.9044 18.6669 77.4756 17.1787 75.9489C15.6939 74.4259 14.1841 72.8166 13.1278 70.2995L14.0499 69.9125ZM22.1019 80.6644C22.5598 81.5905 22.4967 82.278 22.4195 82.8451C22.3457 83.3868 22.2877 83.7122 22.5215 84.1678L21.6318 84.6244C21.2352 83.8516 21.3594 83.2182 21.4287 82.7101C21.4944 82.2274 21.535 81.774 21.2055 81.1076L22.1019 80.6644ZM22.5215 84.1678C23.5151 86.1042 25.3394 87.1453 27.3292 86.6122L27.588 87.5781C25.0354 88.2621 22.785 86.8718 21.6318 84.6244L22.5215 84.1678ZM27.3292 86.6122C28.4343 86.3161 29.6874 85.4988 30.6964 84.7152C31.1933 84.3293 31.6171 83.9627 31.9165 83.6926C32.066 83.5577 32.1841 83.4473 32.2644 83.3711C32.3045 83.333 32.3351 83.3035 32.3554 83.2837C32.3655 83.2739 32.3731 83.2665 32.378 83.2617C32.3804 83.2593 32.3822 83.2575 32.3833 83.2564C32.3838 83.2559 32.3842 83.2555 32.3844 83.2553C32.3845 83.2552 32.3846 83.2552 32.3846 83.2552C32.3846 83.2552 32.3846 83.2552 32.3846 83.2552C32.3846 83.2552 32.3845 83.2552 32.7365 83.6104C33.0885 83.9655 33.0884 83.9656 33.0883 83.9656C33.0883 83.9657 33.0882 83.9658 33.0881 83.9658C33.088 83.966 33.0878 83.9662 33.0875 83.9664C33.087 83.9669 33.0863 83.9676 33.0855 83.9684C33.0838 83.9701 33.0815 83.9724 33.0784 83.9754C33.0723 83.9814 33.0635 83.99 33.0521 84.001C33.0293 84.0232 32.996 84.0553 32.9531 84.0961C32.8673 84.1776 32.7429 84.2939 32.5863 84.4351C32.2734 84.7174 31.8305 85.1006 31.3098 85.505C30.2835 86.302 28.8977 87.2271 27.588 87.5781L27.3292 86.6122ZM32.7365 83.6104C32.5151 84.0587 32.515 84.0586 32.5149 84.0586C32.5148 84.0586 32.5147 84.0585 32.5147 84.0585C32.5145 84.0584 32.5144 84.0583 32.5142 84.0582C32.5138 84.0581 32.5134 84.0578 32.5129 84.0576C32.5119 84.0571 32.5107 84.0565 32.5092 84.0557C32.5062 84.0542 32.5021 84.0522 32.4971 84.0496C32.4871 84.0445 32.4732 84.0374 32.4559 84.0282C32.4213 84.01 32.3728 83.9838 32.3144 83.9504C32.1981 83.8841 32.0393 83.7878 31.8701 83.6681C31.5568 83.4465 31.1102 83.0784 30.9191 82.6086L31.8455 82.232C31.9196 82.4143 32.1501 82.6413 32.4476 82.8517C32.5837 82.948 32.7138 83.027 32.81 83.0819C32.8578 83.1091 32.8965 83.13 32.9225 83.1437C32.9354 83.1506 32.9452 83.1556 32.9513 83.1587C32.9543 83.1602 32.9564 83.1613 32.9575 83.1619C32.9581 83.1622 32.9584 83.1623 32.9585 83.1624C32.9585 83.1624 32.9585 83.1624 32.9584 83.1623C32.9583 83.1623 32.9583 83.1622 32.9582 83.1622C32.9582 83.1622 32.9581 83.1622 32.9581 83.1621C32.958 83.1621 32.9579 83.1621 32.7365 83.6104ZM30.9191 82.6086C30.6567 81.9631 30.9555 81.4245 31.1265 81.1031C31.3279 80.7244 31.4012 80.559 31.3477 80.359L32.3136 80.1002C32.486 80.7437 32.1708 81.2692 32.0093 81.5727C31.8174 81.9336 31.7791 82.0686 31.8455 82.232L30.9191 82.6086ZM31.3477 80.359C31.3309 80.2965 31.2612 80.1705 30.8011 80.0771C30.3621 79.988 29.7875 79.9726 29.0994 79.9393C28.4387 79.9073 27.6962 79.8583 27.0194 79.682C26.3394 79.5049 25.6708 79.1854 25.2118 78.5719L26.0125 77.9729C26.2839 78.3356 26.7092 78.5678 27.2715 78.7143C27.8369 78.8616 28.4849 78.9083 29.1478 78.9404C29.7832 78.9712 30.465 78.9885 31.0001 79.0971C31.5142 79.2015 32.1362 79.4383 32.3136 80.1002L31.3477 80.359ZM25.2118 78.5719C23.5367 76.3328 22.3377 72.8134 21.5601 69.9112C21.1684 68.4495 20.8786 67.1245 20.6867 66.1649C20.5907 65.685 20.5191 65.2959 20.4714 65.0262C20.4476 64.8914 20.4297 64.7863 20.4177 64.7147C20.4118 64.6789 20.4073 64.6514 20.4042 64.6327C20.4027 64.6234 20.4015 64.6162 20.4008 64.6113C20.4004 64.6089 20.4001 64.607 20.3999 64.6057C20.3997 64.605 20.3997 64.6045 20.3996 64.6041C20.3996 64.6039 20.3996 64.6038 20.3995 64.6037C20.3995 64.6035 20.3995 64.6034 20.8934 64.5253C21.3872 64.4471 21.3872 64.4471 21.3872 64.4471C21.3872 64.4472 21.3872 64.4472 21.3872 64.4473C21.3873 64.4475 21.3873 64.4479 21.3874 64.4484C21.3876 64.4493 21.3878 64.4509 21.3881 64.453C21.3888 64.4572 21.3899 64.4636 21.3913 64.4723C21.3941 64.4895 21.3983 64.5156 21.4041 64.5499C21.4155 64.6186 21.4329 64.7205 21.4562 64.852C21.5027 65.1152 21.5729 65.4969 21.6673 65.9688C21.8561 66.9131 22.1412 68.2164 22.526 69.6524C23.3013 72.5458 24.4617 75.9 26.0125 77.9729L25.2118 78.5719ZM31.3823 82.4203C31.4227 82.9187 31.4226 82.9187 31.4225 82.9187C31.4224 82.9187 31.4223 82.9187 31.4222 82.9187C31.4219 82.9187 31.4217 82.9187 31.4215 82.9188C31.421 82.9188 31.4204 82.9188 31.4198 82.9189C31.4185 82.919 31.417 82.9191 31.4151 82.9192C31.4114 82.9195 31.4066 82.9198 31.4007 82.9202C31.3889 82.921 31.3728 82.9219 31.3525 82.9228C31.3121 82.9246 31.2554 82.9264 31.185 82.9266C31.0444 82.9271 30.8478 82.9214 30.6168 82.8971C30.1596 82.8491 29.5425 82.7258 28.9564 82.4132L29.4269 81.5308C29.8596 81.7615 30.3379 81.8623 30.7213 81.9026C30.9106 81.9225 31.0706 81.927 31.1817 81.9267C31.237 81.9265 31.2798 81.9251 31.3074 81.9238C31.3212 81.9232 31.3312 81.9226 31.3371 81.9222C31.34 81.9221 31.3419 81.9219 31.3428 81.9219C31.3432 81.9218 31.3433 81.9218 31.3432 81.9218C31.3431 81.9218 31.343 81.9218 31.3428 81.9219C31.3427 81.9219 31.3425 81.9219 31.3424 81.9219C31.3423 81.9219 31.3422 81.9219 31.3422 81.9219C31.3421 81.9219 31.3419 81.9219 31.3823 82.4203ZM28.9564 82.4132C28.5107 82.1755 28.1313 81.8386 27.8714 81.5749C27.7393 81.4407 27.6331 81.3204 27.5592 81.2327C27.5221 81.1888 27.493 81.1528 27.4726 81.1271C27.4624 81.1142 27.4544 81.1039 27.4486 81.0964C27.4457 81.0927 27.4434 81.0896 27.4416 81.0873C27.4407 81.0862 27.44 81.0852 27.4394 81.0845C27.4391 81.0841 27.4389 81.0837 27.4387 81.0834C27.4385 81.0833 27.4384 81.0832 27.4384 81.083C27.4383 81.083 27.4382 81.0829 27.4382 81.0829C27.4382 81.0828 27.4381 81.0827 27.8375 80.7819C28.2369 80.4812 28.2369 80.4811 28.2368 80.481C28.2368 80.481 28.2368 80.4809 28.2367 80.4809C28.2367 80.4808 28.2366 80.4808 28.2366 80.4807C28.2365 80.4806 28.2365 80.4806 28.2365 80.4805C28.2365 80.4805 28.2366 80.4807 28.2368 80.481C28.2374 80.4817 28.2384 80.4831 28.2401 80.4852C28.2433 80.4894 28.2486 80.4963 28.256 80.5056C28.2708 80.5242 28.2937 80.5525 28.3238 80.5883C28.3842 80.66 28.473 80.7606 28.5838 80.873C28.8096 81.1022 29.1074 81.3604 29.4269 81.5308L28.9564 82.4132Z" fill="#EBDABF"/>
</svg>
