<svg width="51" height="58" viewBox="0 0 51 58" fill="none" xmlns="http://www.w3.org/2000/svg">
<path d="M51 29C51 45.0163 39.5833 58 25.5 58C11.4167 58 0 45.0163 0 29C0 12.9837 11.4167 0 25.5 0C39.5833 0 51 12.9837 51 29Z" fill="#FEF6E8"/>
<path d="M25.5 58C39.5833 58 51 45.0163 51 29C51 12.9837 39.5833 0 25.5 0C51 11.5 51 49.5 25.5 58Z" fill="#FAEFDD"/>
<path d="M50.5 29C50.5 44.8025 39.2486 57.5 25.5 57.5C11.7514 57.5 0.5 44.8025 0.5 29C0.5 13.1975 11.7514 0.5 25.5 0.5C39.2486 0.5 50.5 13.1975 50.5 29Z" stroke="#EBDABF"/>
<circle cx="16.5" cy="21.5" r="1.5" fill="#383838"/>
<circle cx="34.5" cy="21.5" r="1.5" fill="#383838"/>
<path d="M21 28H30" stroke="#383838" stroke-width="1.5"/>
</svg>
