<svg width="200" height="267" viewBox="0 0 200 267" fill="none" xmlns="http://www.w3.org/2000/svg">
<path d="M200 113.725C200 176.534 155.228 227.451 100 227.451C44.7715 227.451 0 176.534 0 113.725C0 50.9166 44.7715 0 100 0C155.228 0 200 50.9166 200 113.725Z" fill="#FEF6E8"/>
<path d="M100 227.451C155.228 227.451 200 176.534 200 113.725C200 50.9166 155.228 0 100 0C200 45.098 200 194.118 100 227.451Z" fill="#FAEFDD"/>
<path d="M198.039 113.725C198.039 175.696 153.916 225.49 100 225.49C46.0838 225.49 1.96078 175.696 1.96078 113.725C1.96078 51.755 46.0838 1.96078 100 1.96078C153.916 1.96078 198.039 51.755 198.039 113.725Z" stroke="#EBDABF" stroke-width="3.92157"/>
<ellipse cx="100" cy="260.784" rx="52.9412" ry="5.88235" fill="#EBDABF"/>
<circle cx="64.7059" cy="84.3137" r="5.88235" fill="#383838"/>
<circle cx="135.294" cy="84.3137" r="5.88235" fill="#383838"/>
<path d="M82.3529 109.804H117.647" stroke="#383838" stroke-width="5.88235"/>
</svg>
