<svg width="375" height="83" viewBox="0 0 375 83" fill="none" xmlns="http://www.w3.org/2000/svg">
<g opacity="0.5">
<path d="M0 2C31.25 2 31.25 12.9467 62.5 12.9467C93.75 12.9467 93.75 2 125 2C156.25 2 156.25 12.9467 187.5 12.9467C218.75 12.9467 218.75 2 250 2C281.25 2 281.25 12.9467 312.5 12.9467C343.75 12.9467 343.75 2 375 2" stroke="white" stroke-width="3" stroke-miterlimit="10"/>
<path d="M0 69.7991C31.25 69.7991 31.25 80.7458 62.5 80.7458C93.75 80.7458 93.75 69.7991 125 69.7991C156.25 69.7991 156.25 80.7458 187.5 80.7458C218.75 80.7458 218.75 69.7991 250 69.7991C281.25 69.7991 281.25 80.7458 312.5 80.7458C343.75 80.7458 343.75 69.7991 375 69.7991" stroke="white" stroke-width="3" stroke-miterlimit="10"/>
<path d="M0 35.7991C31.25 35.7991 31.25 46.7458 62.5 46.7458C93.75 46.7458 93.75 35.7991 125 35.7991C156.25 35.7991 156.25 46.7458 187.5 46.7458C218.75 46.7458 218.75 35.7991 250 35.7991C281.25 35.7991 281.25 46.7458 312.5 46.7458C343.75 46.7458 343.75 35.7991 375 35.7991" stroke="white" stroke-width="3" stroke-miterlimit="10"/>
</g>
</svg>
